<mxfile host="65bd71144e">
    <diagram id="TKtNkjcjXRknT6Bgycyw" name="第 1 页">
        <mxGraphModel dx="748" dy="323" grid="1" gridSize="10" guides="1" tooltips="1" connect="1" arrows="1" fold="1" page="1" pageScale="1" pageWidth="827" pageHeight="1169" math="0" shadow="0">
            <root>
                <mxCell id="0"/>
                <mxCell id="1" parent="0"/>
                <mxCell id="30" value="" style="group" vertex="1" connectable="0" parent="1">
                    <mxGeometry x="214" y="70" width="400" height="295" as="geometry"/>
                </mxCell>
                <mxCell id="18" value="" style="group" vertex="1" connectable="0" parent="30">
                    <mxGeometry y="190" width="120" height="100" as="geometry"/>
                </mxCell>
                <mxCell id="12" value="" style="whiteSpace=wrap;html=1;" vertex="1" parent="18">
                    <mxGeometry width="120" height="100" as="geometry"/>
                </mxCell>
                <mxCell id="13" value="Warrior_V2" style="text;html=1;align=center;verticalAlign=middle;resizable=0;points=[];autosize=1;strokeColor=none;fillColor=none;" vertex="1" parent="18">
                    <mxGeometry x="20" width="80" height="30" as="geometry"/>
                </mxCell>
                <mxCell id="14" value="" style="edgeStyle=none;orthogonalLoop=1;jettySize=auto;html=1;endArrow=none;endFill=0;entryX=0.999;entryY=0.133;entryDx=0;entryDy=0;entryPerimeter=0;" edge="1" parent="18">
                    <mxGeometry width="100" relative="1" as="geometry">
                        <mxPoint x="0.12000000000000455" y="50.23000000000002" as="sourcePoint"/>
                        <mxPoint x="119.99999999999989" y="50" as="targetPoint"/>
                        <Array as="points"/>
                    </mxGeometry>
                </mxCell>
                <mxCell id="16" value="&lt;div style=&quot;text-align: left;&quot;&gt;&lt;br&gt;&lt;/div&gt;&lt;font style=&quot;&quot;&gt;&lt;font style=&quot;font-size: 12px;&quot;&gt;&lt;i&gt;&lt;div style=&quot;text-align: left;&quot;&gt;-effect_enemy()&lt;/div&gt;&lt;div style=&quot;text-align: left;&quot;&gt;-effect_self()&lt;/div&gt;&lt;div style=&quot;text-align: left;&quot;&gt;-canUseBurn()&lt;/div&gt;&lt;/i&gt;&lt;/font&gt;&lt;/font&gt;" style="text;html=1;align=center;verticalAlign=middle;resizable=0;points=[];autosize=1;strokeColor=none;fillColor=none;" vertex="1" parent="18">
                    <mxGeometry x="5" y="30" width="110" height="70" as="geometry"/>
                </mxCell>
                <mxCell id="17" value="" style="edgeStyle=none;orthogonalLoop=1;jettySize=auto;html=1;endArrow=none;endFill=0;entryX=0.999;entryY=0.133;entryDx=0;entryDy=0;entryPerimeter=0;" edge="1" parent="18">
                    <mxGeometry width="100" relative="1" as="geometry">
                        <mxPoint x="5.684341886080802e-14" y="30.230000000000018" as="sourcePoint"/>
                        <mxPoint x="119.87999999999982" y="30" as="targetPoint"/>
                        <Array as="points"/>
                    </mxGeometry>
                </mxCell>
                <mxCell id="26" style="edgeStyle=orthogonalEdgeStyle;elbow=vertical;html=1;fontSize=12;endArrow=none;endFill=0;rounded=0;" edge="1" parent="30" source="13" target="8">
                    <mxGeometry relative="1" as="geometry">
                        <Array as="points">
                            <mxPoint x="60" y="170"/>
                            <mxPoint x="190" y="170"/>
                        </Array>
                    </mxGeometry>
                </mxCell>
                <mxCell id="10" value="" style="group" vertex="1" connectable="0" parent="30">
                    <mxGeometry x="130" width="120" height="160" as="geometry"/>
                </mxCell>
                <mxCell id="2" value="" style="whiteSpace=wrap;html=1;" vertex="1" parent="10">
                    <mxGeometry width="120" height="150" as="geometry"/>
                </mxCell>
                <mxCell id="3" value="Fighter_V1" style="text;html=1;align=center;verticalAlign=middle;resizable=0;points=[];autosize=1;strokeColor=none;fillColor=none;" vertex="1" parent="10">
                    <mxGeometry x="20" width="80" height="30" as="geometry"/>
                </mxCell>
                <mxCell id="5" value="" style="edgeStyle=none;orthogonalLoop=1;jettySize=auto;html=1;endArrow=none;endFill=0;entryX=0.999;entryY=0.133;entryDx=0;entryDy=0;entryPerimeter=0;" edge="1" parent="10">
                    <mxGeometry width="100" relative="1" as="geometry">
                        <mxPoint x="0.12000000000000455" y="80.23000000000002" as="sourcePoint"/>
                        <mxPoint x="119.99999999999989" y="80" as="targetPoint"/>
                        <Array as="points"/>
                    </mxGeometry>
                </mxCell>
                <mxCell id="6" value="&lt;div style=&quot;text-align: left;&quot;&gt;&lt;span style=&quot;background-color: initial;&quot;&gt;#mLife&lt;/span&gt;&lt;/div&gt;&lt;font style=&quot;&quot;&gt;&lt;div style=&quot;text-align: left;&quot;&gt;&lt;span style=&quot;background-color: initial;&quot;&gt;#mMagic&lt;/span&gt;&lt;/div&gt;&lt;font style=&quot;font-size: 12px;&quot;&gt;&lt;div style=&quot;text-align: left;&quot;&gt;&lt;span style=&quot;background-color: initial;&quot;&gt;#mAttack&lt;/span&gt;&lt;/div&gt;&lt;/font&gt;&lt;/font&gt;" style="text;html=1;align=center;verticalAlign=middle;resizable=0;points=[];autosize=1;strokeColor=none;fillColor=none;" vertex="1" parent="10">
                    <mxGeometry y="20" width="70" height="60" as="geometry"/>
                </mxCell>
                <mxCell id="8" value="&lt;div style=&quot;text-align: left;&quot;&gt;&lt;span style=&quot;background-color: initial;&quot;&gt;+burn()&lt;/span&gt;&lt;/div&gt;&lt;font style=&quot;&quot;&gt;&lt;div style=&quot;text-align: left;&quot;&gt;&lt;span style=&quot;background-color: initial;&quot;&gt;-play_effect()&lt;/span&gt;&lt;/div&gt;&lt;font style=&quot;font-size: 12px;&quot;&gt;&lt;i&gt;&lt;div style=&quot;text-align: left;&quot;&gt;-effect_enemy()&lt;/div&gt;&lt;div style=&quot;text-align: left;&quot;&gt;-effect_self()&lt;/div&gt;&lt;div style=&quot;text-align: left;&quot;&gt;-canUseBurn()&lt;/div&gt;&lt;/i&gt;&lt;/font&gt;&lt;/font&gt;" style="text;html=1;align=center;verticalAlign=middle;resizable=0;points=[];autosize=1;strokeColor=none;fillColor=none;" vertex="1" parent="10">
                    <mxGeometry y="70" width="110" height="90" as="geometry"/>
                </mxCell>
                <mxCell id="9" value="" style="edgeStyle=none;orthogonalLoop=1;jettySize=auto;html=1;endArrow=none;endFill=0;entryX=0.999;entryY=0.133;entryDx=0;entryDy=0;entryPerimeter=0;" edge="1" parent="10">
                    <mxGeometry width="100" relative="1" as="geometry">
                        <mxPoint x="5.684341886080802e-14" y="30.230000000000018" as="sourcePoint"/>
                        <mxPoint x="119.87999999999982" y="30" as="targetPoint"/>
                        <Array as="points"/>
                    </mxGeometry>
                </mxCell>
                <mxCell id="19" value="" style="group" vertex="1" connectable="0" parent="30">
                    <mxGeometry x="280" y="190" width="120" height="105" as="geometry"/>
                </mxCell>
                <mxCell id="20" value="" style="whiteSpace=wrap;html=1;" vertex="1" parent="19">
                    <mxGeometry width="120" height="100" as="geometry"/>
                </mxCell>
                <mxCell id="21" value="Mage_V2" style="text;html=1;align=center;verticalAlign=middle;resizable=0;points=[];autosize=1;strokeColor=none;fillColor=none;" vertex="1" parent="19">
                    <mxGeometry x="25" width="70" height="30" as="geometry"/>
                </mxCell>
                <mxCell id="22" value="" style="edgeStyle=none;orthogonalLoop=1;jettySize=auto;html=1;endArrow=none;endFill=0;entryX=0.999;entryY=0.133;entryDx=0;entryDy=0;entryPerimeter=0;" edge="1" parent="19">
                    <mxGeometry width="100" relative="1" as="geometry">
                        <mxPoint x="0.12000000000000455" y="50.23000000000002" as="sourcePoint"/>
                        <mxPoint x="119.99999999999989" y="50" as="targetPoint"/>
                        <Array as="points"/>
                    </mxGeometry>
                </mxCell>
                <mxCell id="23" value="&lt;div style=&quot;text-align: left;&quot;&gt;&lt;br&gt;&lt;/div&gt;&lt;font style=&quot;&quot;&gt;&lt;font style=&quot;font-size: 12px;&quot;&gt;&lt;i&gt;&lt;div style=&quot;text-align: left;&quot;&gt;-effect_enemy()&lt;/div&gt;&lt;div style=&quot;text-align: left;&quot;&gt;-effect_self()&lt;/div&gt;&lt;div style=&quot;text-align: left;&quot;&gt;-canUseBurn()&lt;/div&gt;&lt;/i&gt;&lt;/font&gt;&lt;/font&gt;" style="text;html=1;align=center;verticalAlign=middle;resizable=0;points=[];autosize=1;strokeColor=none;fillColor=none;" vertex="1" parent="19">
                    <mxGeometry x="5" y="35" width="110" height="70" as="geometry"/>
                </mxCell>
                <mxCell id="24" value="" style="edgeStyle=none;orthogonalLoop=1;jettySize=auto;html=1;endArrow=none;endFill=0;entryX=0.999;entryY=0.133;entryDx=0;entryDy=0;entryPerimeter=0;" edge="1" parent="19">
                    <mxGeometry width="100" relative="1" as="geometry">
                        <mxPoint x="5.684341886080802e-14" y="30.230000000000018" as="sourcePoint"/>
                        <mxPoint x="119.87999999999982" y="30" as="targetPoint"/>
                        <Array as="points"/>
                    </mxGeometry>
                </mxCell>
                <mxCell id="27" style="edgeStyle=orthogonalEdgeStyle;elbow=vertical;html=1;fontSize=12;endArrow=classic;endFill=1;startArrow=none;startFill=0;rounded=0;" edge="1" parent="30" source="21">
                    <mxGeometry relative="1" as="geometry">
                        <mxPoint x="190.0000000000001" y="150" as="targetPoint"/>
                        <Array as="points">
                            <mxPoint x="340" y="170"/>
                            <mxPoint x="190" y="170"/>
                        </Array>
                    </mxGeometry>
                </mxCell>
            </root>
        </mxGraphModel>
    </diagram>
</mxfile>